<svg xmlns="http://www.w3.org/2000/svg" width="352.6" height="123" viewBox="0 0 352.6 123"><title>logo</title><path d="M227.09,19.57l-10.8,23.62H213L202.18,19.57l.24-.38h5.09l7.15,17.47,7.49-17.47h4.71Z"/><polygon points="138.58 38.67 138.58 11.98 138.19 11.69 135.77 11.98 133.25 12.28 133.25 12.42 133.25 43.19 152.98 43.19 152.98 38.67 138.58 38.67"/><polygon points="253.18 29.94 263.02 19.57 262.78 19.18 257.12 19.18 247.15 29.92 249.34 32.77 249.34 32.77 257.36 43.19 263.12 43.19 263.31 42.8 253.18 29.94"/><path d="M247.15,43.18h-5.23V11l4.85-.58.38.29Z"/><path d="M180,18.89l-4.22.5v2.8a11.65,11.65,0,0,0-8.4-3.41c-7.1,0-12.1,5.52-12.1,12.58s5,12.58,12.1,12.58a11.62,11.62,0,0,0,8.4-3.5v2.93h4.61V19.18ZM168.11,39.39c-4.61,0-7.58-3.6-7.58-8s3-8,7.58-8c4,0,7.49,2.78,7.49,8S172.19,39.39,168.11,39.39Z"/><path d="M200.21,19.37a8.08,8.08,0,0,0-3.6-.77,7.44,7.44,0,0,0-6.48,3.74V19.18h0l-.38-.29-2.42.29-1.8.21V43.18h5.23V29.89c0-3.84,2.06-6.67,5.33-6.67a4.77,4.77,0,0,1,2.64.58l.43-.19,1.3-3.84Z"/><polygon points="235.25 18.89 232.82 19.18 230.45 19.46 230.45 19.47 230.45 43.19 235.63 43.19 235.63 19.18 235.25 18.89"/><path d="M229.51,11.73a3.28,3.28,0,1,1,3.25,3.3A3.28,3.28,0,0,1,229.51,11.73Z"/><polygon points="144.51 70.58 154.35 60.21 154.11 59.83 148.45 59.83 138.48 70.57 140.67 73.41 140.67 73.41 148.69 83.83 154.45 83.83 154.64 83.45 144.51 70.58"/><polygon points="133.25 51.73 133.25 83.89 138.48 83.89 138.48 51.44 138.1 51.15 133.25 51.73"/><path d="M155.63,71.83c0-7.15,5.52-12.58,13-12.58s13,5.43,13,12.58-5.52,12.58-13,12.58S155.63,79,155.63,71.83Zm20.74,0c0-4.61-3.22-8-7.78-8a7.65,7.65,0,0,0-7.73,8c0,4.61,3.22,8,7.73,8S176.37,76.44,176.37,71.83Z"/><path d="M333.3,73.12a7.51,7.51,0,0,0,7.87,7.1,10.09,10.09,0,0,0,7.49-3.17h.43l2.64,2.4v.38c-2.54,3.22-7,4.56-10.71,4.56-7,0-12.91-4.75-12.91-12.53,0-7.25,5.23-12.63,12.38-12.63A11.93,11.93,0,0,1,349,62.56a12.26,12.26,0,0,1,3.55,8.88,8,8,0,0,1-.14,1.68Zm0-3.6h14.07a7.22,7.22,0,0,0-1.92-4.18,7.21,7.21,0,0,0-12.15,4.18Z"/><path d="M215.11,59.25a10.11,10.11,0,0,0-8.5,4.18,8.91,8.91,0,0,0-8-4.18A9.45,9.45,0,0,0,190.77,63V59.83l-.38-.29-4.22.5V83.83h5.28v-14a5.68,5.68,0,0,1,5.9-6c3.46,0,5.47,2.4,5.47,6v14h5.28v-14a5.72,5.72,0,0,1,6-6c3.46,0,5.47,2.4,5.47,6v14h5.23V69.38C224.75,63.38,221.06,59.25,215.11,59.25Z"/><path d="M259.65,59.25a10.11,10.11,0,0,0-8.5,4.18,8.91,8.91,0,0,0-8-4.18A9.45,9.45,0,0,0,235.31,63V59.83l-.38-.29-4.22.5V83.83H236v-14a5.68,5.68,0,0,1,5.9-6c3.46,0,5.47,2.4,5.47,6v14h5.28v-14a5.72,5.72,0,0,1,6-6c3.46,0,5.47,2.4,5.47,6v14h5.23V69.38C269.3,63.38,265.6,59.25,259.65,59.25Z"/><path d="M313.91,59.25a9.48,9.48,0,0,0-7.82,3.7V59.83l-.38-.29-4.22.5V83.83h5.28v-14a5.73,5.73,0,0,1,6-6c3.65,0,5.81,2.4,5.81,6v14h5.28V69.38C323.85,63.43,320,59.25,313.91,59.25Z"/><path d="M295.71,59.54l-4.85.58V74c0,3.46-2.16,5.81-5.47,5.81s-5.47-2.35-5.47-5.81V59.83l-.38-.29-4.85.58V73c0,6.76,4.23,11.36,10.7,11.36s10.7-4.6,10.7-11.36V59.83Z"/><path d="M0,0H106.6c-.12,51.79-6.09,90.92-53.28,123C5.88,90.92.11,51.92,0,0Z" fill="#006eb6"/><path d="M58.54,94.57c0-5.06,1.44-7.62,6.4-11.39l.08-.06.08.05a7.89,7.89,0,0,0,9.65-.91c1.92-1.92,3.05-5.92,4.15-9.78.92-3.25,1.8-6.35,3.11-8.35-2,1.31-5.09,2.19-8.35,3.11-3.87,1.1-7.87,2.23-9.78,4.15A7.87,7.87,0,0,0,63,81l.07.11-.1.08c-1.14.9-2.18,1.85-3.1,2.69-.63.57-1.17,1.07-1.62,1.43l-.22.18v-.29c-.05-2.12-.12-5.92-.18-9.95l-.07-4.09c0-2.65,2.67-6.1,7.2-9.25L65,61.9l.08,0A7.89,7.89,0,0,0,74.75,61c1.92-1.92,3.05-5.92,4.15-9.78.92-3.25,1.8-6.35,3.11-8.35-2,1.31-5.09,2.19-8.35,3.11-3.87,1.1-7.87,2.24-9.78,4.15A7.87,7.87,0,0,0,63,59.82l.06.1-.09.08c-1.68,1.46-3.86,3.48-5.07,4.7l-.23.24-.09-5.31c0-2.47-.08-4.75-.11-6.91,0-3.76,3.24-8.81,7.5-11.74l.08-.05.08,0a7.89,7.89,0,0,0,9.65-.91c1.92-1.92,3.05-5.92,4.15-9.78.92-3.25,1.8-6.35,3.11-8.35-2,1.31-5.09,2.19-8.35,3.11-3.87,1.1-7.87,2.24-9.78,4.15A7.87,7.87,0,0,0,63,38.84l.06.1-.09.08a67.29,67.29,0,0,0-5.26,5.58l-.22.26-.1-.14C54.55,41,54.65,31.21,54.7,29.28v-.11l.11,0A7.89,7.89,0,0,0,61,21.68c0-2.71-2-6.34-4-9.85-1.65-3-3.23-5.79-3.71-8.14C52.83,6,51.26,8.86,49.6,11.83c-2,3.51-4,7.14-4,9.85a7.89,7.89,0,0,0,6.19,7.47l.11,0v.11c0,1.92.15,11.7-2.65,15.44l-.1.14-.22-.26A67.26,67.26,0,0,0,43.67,39l-.09-.08.06-.1a7.87,7.87,0,0,0-.92-9.64c-1.92-1.92-5.92-3.05-9.78-4.15-3.25-.92-6.35-1.8-8.35-3.11,1.31,2,2.19,5.09,3.11,8.35,1.1,3.87,2.23,7.87,4.15,9.78a7.89,7.89,0,0,0,9.65.91l.08,0,.08.05c4.26,2.93,7.49,8,7.51,11.74,0,2.14-.07,4.4-.11,6.84L49,64.93l-.23-.24c-1.21-1.22-3.39-3.24-5.07-4.7l-.09-.08.06-.1a7.87,7.87,0,0,0-.92-9.64c-1.92-1.92-5.92-3.05-9.78-4.15-3.25-.92-6.35-1.8-8.35-3.11,1.31,2,2.19,5.09,3.11,8.35,1.1,3.87,2.23,7.87,4.15,9.78a7.89,7.89,0,0,0,9.65.91l.08,0,.08.05c4.53,3.15,7.22,6.61,7.2,9.25l-.07,4.19c-.07,4-.13,7.75-.18,9.85v.29l-.22-.18c-.45-.37-1-.86-1.61-1.43-.92-.84-2-1.79-3.1-2.69l-.1-.08.07-.11a7.87,7.87,0,0,0-.92-9.64c-1.92-1.92-5.92-3.05-9.78-4.15-3.25-.92-6.35-1.8-8.35-3.11,1.31,2,2.19,5.09,3.11,8.35,1.1,3.87,2.23,7.87,4.15,9.78a7.89,7.89,0,0,0,9.65.91l.08-.05.08.06c5,3.77,6.39,6.33,6.4,11.39S41.34,102.3,33,105.06a135.52,135.52,0,0,0,20.3,16.74A135.46,135.46,0,0,0,73.54,105C65.25,102.29,58.53,99.53,58.54,94.57Z" fill="#fff"/></svg>